<svg width="64" height="64" viewBox="0 0 64 64" fill="none" xmlns="http://www.w3.org/2000/svg">
<rect width="64" height="64" rx="10" fill="#2B7FFF"/>
<path d="M12.5795 44H7.30682L19.2045 20.7273H25.5455L29.7045 44H24.4318L21.6023 26.0455H21.4205L12.5795 44ZM13.7841 34.8523H26.2386L25.5795 38.6932H13.125L13.7841 34.8523ZM54.6847 32.6818C54.2604 35.1667 53.4384 37.2765 52.2188 39.0114C51.0066 40.7462 49.5256 42.0644 47.7756 42.9659C46.0331 43.8674 44.1544 44.3182 42.1392 44.3182C40.0256 44.3182 38.2036 43.8371 36.6733 42.875C35.1506 41.9129 34.0483 40.5227 33.3665 38.7045C32.6847 36.8788 32.5559 34.678 32.9801 32.1023C33.3892 29.6098 34.2036 27.4962 35.4233 25.7614C36.643 24.0189 38.1316 22.6932 39.8892 21.7841C41.6468 20.8674 43.5369 20.4091 45.5597 20.4091C47.6581 20.4091 49.4688 20.8939 50.9915 21.8636C52.5218 22.8333 53.6241 24.2348 54.2983 26.0682C54.9801 27.8939 55.1089 30.0985 54.6847 32.6818ZM49.7869 32.1023C50.0521 30.5038 50.0407 29.1629 49.7528 28.0795C49.4725 26.9886 48.9574 26.1629 48.2074 25.6023C47.4574 25.0417 46.5104 24.7614 45.3665 24.7614C44.1241 24.7614 42.9839 25.072 41.946 25.6932C40.9157 26.3144 40.0445 27.2159 39.3324 28.3977C38.6278 29.572 38.1392 31 37.8665 32.6818C37.5938 34.2879 37.6013 35.6288 37.8892 36.7045C38.1847 37.7803 38.7112 38.5947 39.4688 39.1477C40.2339 39.6932 41.1847 39.9659 42.321 39.9659C43.5559 39.9659 44.6847 39.6629 45.7074 39.0568C46.7377 38.4432 47.6051 37.553 48.3097 36.3864C49.0142 35.2121 49.5066 33.7841 49.7869 32.1023Z" fill="white"/>
</svg>
